<?xml version="1.0" encoding="UTF-8" standalone="no"?>
<!DOCTYPE svg PUBLIC "-//W3C//DTD SVG 1.1//EN"
 "http://www.w3.org/Graphics/SVG/1.1/DTD/svg11.dtd">
<!-- Generated by graphviz version 2.38.0 (20140413.2041)
 -->
<!-- Title: snakemake_dag Pages: 1 -->
<svg width="252pt" height="260pt"
 viewBox="0.00 0.00 251.83 260.00" xmlns="http://www.w3.org/2000/svg" xmlns:xlink="http://www.w3.org/1999/xlink">
<g id="graph0" class="graph" transform="scale(1 1) rotate(0) translate(4 256)">
<title>snakemake_dag</title>
<polygon fill="white" stroke="none" points="-4,4 -4,-256 247.826,-256 247.826,4 -4,4"/>
<!-- 0 -->
<g id="node1" class="node"><title>0</title>
<path fill="none" stroke="#59d856" stroke-width="2" d="M134.847,-36C134.847,-36 104.847,-36 104.847,-36 98.8472,-36 92.8472,-30 92.8472,-24 92.8472,-24 92.8472,-12 92.8472,-12 92.8472,-6 98.8472,-0 104.847,-0 104.847,-0 134.847,-0 134.847,-0 140.847,-0 146.847,-6 146.847,-12 146.847,-12 146.847,-24 146.847,-24 146.847,-30 140.847,-36 134.847,-36"/>
<text text-anchor="middle" x="119.847" y="-15" font-family="sans" font-size="10.00">all</text>
</g>
<!-- 1 -->
<g id="node2" class="node"><title>1</title>
<path fill="none" stroke="#d6d856" stroke-width="2" d="M55.8472,-108C55.8472,-108 25.8472,-108 25.8472,-108 19.8472,-108 13.8472,-102 13.8472,-96 13.8472,-96 13.8472,-84 13.8472,-84 13.8472,-78 19.8472,-72 25.8472,-72 25.8472,-72 55.8472,-72 55.8472,-72 61.8472,-72 67.8472,-78 67.8472,-84 67.8472,-84 67.8472,-96 67.8472,-96 67.8472,-102 61.8472,-108 55.8472,-108"/>
<text text-anchor="middle" x="40.8472" y="-87" font-family="sans" font-size="10.00">plot</text>
</g>
<!-- 1&#45;&gt;0 -->
<g id="edge1" class="edge"><title>1&#45;&gt;0</title>
<path fill="none" stroke="grey" stroke-width="2" d="M60.3753,-71.6966C70.229,-62.9655 82.3329,-52.2405 93.0433,-42.7503"/>
<polygon fill="grey" stroke="grey" stroke-width="2" points="95.3803,-45.3558 100.544,-36.1043 90.738,-40.1166 95.3803,-45.3558"/>
</g>
<!-- 2 -->
<g id="node3" class="node"><title>2</title>
<path fill="none" stroke="#d6d856" stroke-width="2" stroke-dasharray="5,2" d="M134.847,-108C134.847,-108 104.847,-108 104.847,-108 98.8472,-108 92.8472,-102 92.8472,-96 92.8472,-96 92.8472,-84 92.8472,-84 92.8472,-78 98.8472,-72 104.847,-72 104.847,-72 134.847,-72 134.847,-72 140.847,-72 146.847,-78 146.847,-84 146.847,-84 146.847,-96 146.847,-96 146.847,-102 140.847,-108 134.847,-108"/>
<text text-anchor="middle" x="119.847" y="-87" font-family="sans" font-size="10.00">plot</text>
</g>
<!-- 2&#45;&gt;0 -->
<g id="edge2" class="edge"><title>2&#45;&gt;0</title>
<path fill="none" stroke="grey" stroke-width="2" d="M119.847,-71.6966C119.847,-63.9827 119.847,-54.7125 119.847,-46.1124"/>
<polygon fill="grey" stroke="grey" stroke-width="2" points="123.347,-46.1043 119.847,-36.1043 116.347,-46.1044 123.347,-46.1043"/>
</g>
<!-- 3 -->
<g id="node4" class="node"><title>3</title>
<path fill="none" stroke="#d6d856" stroke-width="2" d="M210.847,-108C210.847,-108 180.847,-108 180.847,-108 174.847,-108 168.847,-102 168.847,-96 168.847,-96 168.847,-84 168.847,-84 168.847,-78 174.847,-72 180.847,-72 180.847,-72 210.847,-72 210.847,-72 216.847,-72 222.847,-78 222.847,-84 222.847,-84 222.847,-96 222.847,-96 222.847,-102 216.847,-108 210.847,-108"/>
<text text-anchor="middle" x="195.847" y="-87" font-family="sans" font-size="10.00">plot</text>
</g>
<!-- 3&#45;&gt;0 -->
<g id="edge3" class="edge"><title>3&#45;&gt;0</title>
<path fill="none" stroke="grey" stroke-width="2" d="M177.061,-71.6966C167.673,-63.0503 156.163,-52.4486 145.934,-43.027"/>
<polygon fill="grey" stroke="grey" stroke-width="2" points="148.144,-40.3047 138.418,-36.1043 143.402,-45.4535 148.144,-40.3047"/>
</g>
<!-- 4 -->
<g id="node5" class="node"><title>4</title>
<path fill="none" stroke="#56d8d8" stroke-width="2" d="M51.8472,-180C51.8472,-180 21.8472,-180 21.8472,-180 15.8472,-180 9.84717,-174 9.84717,-168 9.84717,-168 9.84717,-156 9.84717,-156 9.84717,-150 15.8472,-144 21.8472,-144 21.8472,-144 51.8472,-144 51.8472,-144 57.8472,-144 63.8472,-150 63.8472,-156 63.8472,-156 63.8472,-168 63.8472,-168 63.8472,-174 57.8472,-180 51.8472,-180"/>
<text text-anchor="middle" x="36.8472" y="-159" font-family="sans" font-size="10.00">jf_histo</text>
</g>
<!-- 4&#45;&gt;1 -->
<g id="edge4" class="edge"><title>4&#45;&gt;1</title>
<path fill="none" stroke="grey" stroke-width="2" d="M37.8359,-143.697C38.2767,-135.983 38.8065,-126.712 39.2979,-118.112"/>
<polygon fill="grey" stroke="grey" stroke-width="2" points="42.7935,-118.288 39.8698,-108.104 35.8049,-117.888 42.7935,-118.288"/>
</g>
<!-- 5 -->
<g id="node6" class="node"><title>5</title>
<path fill="none" stroke="#56d8d8" stroke-width="2" stroke-dasharray="5,2" d="M134.847,-180C134.847,-180 104.847,-180 104.847,-180 98.8472,-180 92.8472,-174 92.8472,-168 92.8472,-168 92.8472,-156 92.8472,-156 92.8472,-150 98.8472,-144 104.847,-144 104.847,-144 134.847,-144 134.847,-144 140.847,-144 146.847,-150 146.847,-156 146.847,-156 146.847,-168 146.847,-168 146.847,-174 140.847,-180 134.847,-180"/>
<text text-anchor="middle" x="119.847" y="-159" font-family="sans" font-size="10.00">jf_histo</text>
</g>
<!-- 5&#45;&gt;2 -->
<g id="edge5" class="edge"><title>5&#45;&gt;2</title>
<path fill="none" stroke="grey" stroke-width="2" d="M119.847,-143.697C119.847,-135.983 119.847,-126.712 119.847,-118.112"/>
<polygon fill="grey" stroke="grey" stroke-width="2" points="123.347,-118.104 119.847,-108.104 116.347,-118.104 123.347,-118.104"/>
</g>
<!-- 6 -->
<g id="node7" class="node"><title>6</title>
<path fill="none" stroke="#56d8d8" stroke-width="2" d="M218.847,-180C218.847,-180 188.847,-180 188.847,-180 182.847,-180 176.847,-174 176.847,-168 176.847,-168 176.847,-156 176.847,-156 176.847,-150 182.847,-144 188.847,-144 188.847,-144 218.847,-144 218.847,-144 224.847,-144 230.847,-150 230.847,-156 230.847,-156 230.847,-168 230.847,-168 230.847,-174 224.847,-180 218.847,-180"/>
<text text-anchor="middle" x="203.847" y="-159" font-family="sans" font-size="10.00">jf_histo</text>
</g>
<!-- 6&#45;&gt;3 -->
<g id="edge6" class="edge"><title>6&#45;&gt;3</title>
<path fill="none" stroke="grey" stroke-width="2" d="M201.87,-143.697C200.988,-135.983 199.929,-126.712 198.946,-118.112"/>
<polygon fill="grey" stroke="grey" stroke-width="2" points="202.415,-117.642 197.802,-108.104 195.46,-118.437 202.415,-117.642"/>
</g>
<!-- 7 -->
<g id="node8" class="node"><title>7</title>
<path fill="none" stroke="#d85656" stroke-width="2" d="M55.5422,-252C55.5422,-252 12.1521,-252 12.1521,-252 6.15215,-252 0.152145,-246 0.152145,-240 0.152145,-240 0.152145,-228 0.152145,-228 0.152145,-222 6.15215,-216 12.1521,-216 12.1521,-216 55.5422,-216 55.5422,-216 61.5422,-216 67.5422,-222 67.5422,-228 67.5422,-228 67.5422,-240 67.5422,-240 67.5422,-246 61.5422,-252 55.5422,-252"/>
<text text-anchor="middle" x="33.8472" y="-236" font-family="sans" font-size="10.00">jf_count</text>
<text text-anchor="middle" x="33.8472" y="-226" font-family="sans" font-size="10.00">strain: se15</text>
</g>
<!-- 7&#45;&gt;4 -->
<g id="edge7" class="edge"><title>7&#45;&gt;4</title>
<path fill="none" stroke="grey" stroke-width="2" d="M34.5887,-215.697C34.9193,-207.983 35.3166,-198.712 35.6852,-190.112"/>
<polygon fill="grey" stroke="grey" stroke-width="2" points="39.1826,-190.245 36.1141,-180.104 32.1891,-189.945 39.1826,-190.245"/>
</g>
<!-- 8 -->
<g id="node9" class="node"><title>8</title>
<path fill="none" stroke="#d85656" stroke-width="2" stroke-dasharray="5,2" d="M142.104,-252C142.104,-252 97.5908,-252 97.5908,-252 91.5908,-252 85.5908,-246 85.5908,-240 85.5908,-240 85.5908,-228 85.5908,-228 85.5908,-222 91.5908,-216 97.5908,-216 97.5908,-216 142.104,-216 142.104,-216 148.104,-216 154.104,-222 154.104,-228 154.104,-228 154.104,-240 154.104,-240 154.104,-246 148.104,-252 142.104,-252"/>
<text text-anchor="middle" x="119.847" y="-236" font-family="sans" font-size="10.00">jf_count</text>
<text text-anchor="middle" x="119.847" y="-226" font-family="sans" font-size="10.00">strain: ed1a</text>
</g>
<!-- 8&#45;&gt;5 -->
<g id="edge8" class="edge"><title>8&#45;&gt;5</title>
<path fill="none" stroke="grey" stroke-width="2" d="M119.847,-215.697C119.847,-207.983 119.847,-198.712 119.847,-190.112"/>
<polygon fill="grey" stroke="grey" stroke-width="2" points="123.347,-190.104 119.847,-180.104 116.347,-190.104 123.347,-190.104"/>
</g>
<!-- 9 -->
<g id="node10" class="node"><title>9</title>
<path fill="none" stroke="#d85656" stroke-width="2" d="M231.804,-252C231.804,-252 183.89,-252 183.89,-252 177.89,-252 171.89,-246 171.89,-240 171.89,-240 171.89,-228 171.89,-228 171.89,-222 177.89,-216 183.89,-216 183.89,-216 231.804,-216 231.804,-216 237.804,-216 243.804,-222 243.804,-228 243.804,-228 243.804,-240 243.804,-240 243.804,-246 237.804,-252 231.804,-252"/>
<text text-anchor="middle" x="207.847" y="-236" font-family="sans" font-size="10.00">jf_count</text>
<text text-anchor="middle" x="207.847" y="-226" font-family="sans" font-size="10.00">strain: ko11fl</text>
</g>
<!-- 9&#45;&gt;6 -->
<g id="edge9" class="edge"><title>9&#45;&gt;6</title>
<path fill="none" stroke="grey" stroke-width="2" d="M206.858,-215.697C206.418,-207.983 205.888,-198.712 205.396,-190.112"/>
<polygon fill="grey" stroke="grey" stroke-width="2" points="208.889,-189.888 204.825,-180.104 201.901,-190.288 208.889,-189.888"/>
</g>
</g>
</svg>
