<?xml version="1.0" encoding="UTF-8" standalone="no"?>
<!DOCTYPE svg PUBLIC "-//W3C//DTD SVG 1.1//EN"
 "http://www.w3.org/Graphics/SVG/1.1/DTD/svg11.dtd">
<!-- Generated by graphviz version 2.38.0 (20140413.2041)
 -->
<!-- Title: snakemake_dag Pages: 1 -->
<svg width="252pt" height="260pt"
 viewBox="0.00 0.00 251.83 260.00" xmlns="http://www.w3.org/2000/svg" xmlns:xlink="http://www.w3.org/1999/xlink">
<g id="graph0" class="graph" transform="scale(1 1) rotate(0) translate(4 256)">
<title>snakemake_dag</title>
<polygon fill="white" stroke="none" points="-4,4 -4,-256 247.826,-256 247.826,4 -4,4"/>
<!-- 0 -->
<g id="node1" class="node"><title>0</title>
<path fill="none" stroke="#d6d856" stroke-width="2" d="M138.979,-36C138.979,-36 108.979,-36 108.979,-36 102.979,-36 96.9785,-30 96.9785,-24 96.9785,-24 96.9785,-12 96.9785,-12 96.9785,-6 102.979,-0 108.979,-0 108.979,-0 138.979,-0 138.979,-0 144.979,-0 150.979,-6 150.979,-12 150.979,-12 150.979,-24 150.979,-24 150.979,-30 144.979,-36 138.979,-36"/>
<text text-anchor="middle" x="123.979" y="-15" font-family="sans" font-size="10.00">all</text>
</g>
<!-- 1 -->
<g id="node2" class="node"><title>1</title>
<path fill="none" stroke="#59d856" stroke-width="2" d="M58.9785,-108C58.9785,-108 28.9785,-108 28.9785,-108 22.9785,-108 16.9785,-102 16.9785,-96 16.9785,-96 16.9785,-84 16.9785,-84 16.9785,-78 22.9785,-72 28.9785,-72 28.9785,-72 58.9785,-72 58.9785,-72 64.9785,-72 70.9785,-78 70.9785,-84 70.9785,-84 70.9785,-96 70.9785,-96 70.9785,-102 64.9785,-108 58.9785,-108"/>
<text text-anchor="middle" x="43.9785" y="-87" font-family="sans" font-size="10.00">plot</text>
</g>
<!-- 1&#45;&gt;0 -->
<g id="edge1" class="edge"><title>1&#45;&gt;0</title>
<path fill="none" stroke="grey" stroke-width="2" d="M63.7538,-71.6966C73.7322,-62.9655 85.9894,-52.2405 96.8353,-42.7503"/>
<polygon fill="grey" stroke="grey" stroke-width="2" points="99.2097,-45.3234 104.431,-36.1043 94.6001,-40.0554 99.2097,-45.3234"/>
</g>
<!-- 2 -->
<g id="node3" class="node"><title>2</title>
<path fill="none" stroke="#59d856" stroke-width="2" d="M138.979,-108C138.979,-108 108.979,-108 108.979,-108 102.979,-108 96.9785,-102 96.9785,-96 96.9785,-96 96.9785,-84 96.9785,-84 96.9785,-78 102.979,-72 108.979,-72 108.979,-72 138.979,-72 138.979,-72 144.979,-72 150.979,-78 150.979,-84 150.979,-84 150.979,-96 150.979,-96 150.979,-102 144.979,-108 138.979,-108"/>
<text text-anchor="middle" x="123.979" y="-87" font-family="sans" font-size="10.00">plot</text>
</g>
<!-- 2&#45;&gt;0 -->
<g id="edge2" class="edge"><title>2&#45;&gt;0</title>
<path fill="none" stroke="grey" stroke-width="2" d="M123.979,-71.6966C123.979,-63.9827 123.979,-54.7125 123.979,-46.1124"/>
<polygon fill="grey" stroke="grey" stroke-width="2" points="127.479,-46.1043 123.979,-36.1043 120.479,-46.1044 127.479,-46.1043"/>
</g>
<!-- 3 -->
<g id="node4" class="node"><title>3</title>
<path fill="none" stroke="#59d856" stroke-width="2" d="M213.979,-108C213.979,-108 183.979,-108 183.979,-108 177.979,-108 171.979,-102 171.979,-96 171.979,-96 171.979,-84 171.979,-84 171.979,-78 177.979,-72 183.979,-72 183.979,-72 213.979,-72 213.979,-72 219.979,-72 225.979,-78 225.979,-84 225.979,-84 225.979,-96 225.979,-96 225.979,-102 219.979,-108 213.979,-108"/>
<text text-anchor="middle" x="198.979" y="-87" font-family="sans" font-size="10.00">plot</text>
</g>
<!-- 3&#45;&gt;0 -->
<g id="edge3" class="edge"><title>3&#45;&gt;0</title>
<path fill="none" stroke="grey" stroke-width="2" d="M180.439,-71.6966C171.175,-63.0503 159.816,-52.4486 149.722,-43.027"/>
<polygon fill="grey" stroke="grey" stroke-width="2" points="152.003,-40.3688 142.305,-36.1043 147.227,-45.4863 152.003,-40.3688"/>
</g>
<!-- 4 -->
<g id="node5" class="node"><title>4</title>
<path fill="none" stroke="#d85656" stroke-width="2" d="M54.9785,-180C54.9785,-180 24.9785,-180 24.9785,-180 18.9785,-180 12.9785,-174 12.9785,-168 12.9785,-168 12.9785,-156 12.9785,-156 12.9785,-150 18.9785,-144 24.9785,-144 24.9785,-144 54.9785,-144 54.9785,-144 60.9785,-144 66.9785,-150 66.9785,-156 66.9785,-156 66.9785,-168 66.9785,-168 66.9785,-174 60.9785,-180 54.9785,-180"/>
<text text-anchor="middle" x="39.9785" y="-159" font-family="sans" font-size="10.00">jf_histo</text>
</g>
<!-- 4&#45;&gt;1 -->
<g id="edge4" class="edge"><title>4&#45;&gt;1</title>
<path fill="none" stroke="grey" stroke-width="2" d="M40.9673,-143.697C41.4081,-135.983 41.9378,-126.712 42.4292,-118.112"/>
<polygon fill="grey" stroke="grey" stroke-width="2" points="45.9248,-118.288 43.0011,-108.104 38.9362,-117.888 45.9248,-118.288"/>
</g>
<!-- 5 -->
<g id="node6" class="node"><title>5</title>
<path fill="none" stroke="#d85656" stroke-width="2" d="M138.979,-180C138.979,-180 108.979,-180 108.979,-180 102.979,-180 96.9785,-174 96.9785,-168 96.9785,-168 96.9785,-156 96.9785,-156 96.9785,-150 102.979,-144 108.979,-144 108.979,-144 138.979,-144 138.979,-144 144.979,-144 150.979,-150 150.979,-156 150.979,-156 150.979,-168 150.979,-168 150.979,-174 144.979,-180 138.979,-180"/>
<text text-anchor="middle" x="123.979" y="-159" font-family="sans" font-size="10.00">jf_histo</text>
</g>
<!-- 5&#45;&gt;2 -->
<g id="edge5" class="edge"><title>5&#45;&gt;2</title>
<path fill="none" stroke="grey" stroke-width="2" d="M123.979,-143.697C123.979,-135.983 123.979,-126.712 123.979,-118.112"/>
<polygon fill="grey" stroke="grey" stroke-width="2" points="127.479,-118.104 123.979,-108.104 120.479,-118.104 127.479,-118.104"/>
</g>
<!-- 6 -->
<g id="node7" class="node"><title>6</title>
<path fill="none" stroke="#d85656" stroke-width="2" d="M220.979,-180C220.979,-180 190.979,-180 190.979,-180 184.979,-180 178.979,-174 178.979,-168 178.979,-168 178.979,-156 178.979,-156 178.979,-150 184.979,-144 190.979,-144 190.979,-144 220.979,-144 220.979,-144 226.979,-144 232.979,-150 232.979,-156 232.979,-156 232.979,-168 232.979,-168 232.979,-174 226.979,-180 220.979,-180"/>
<text text-anchor="middle" x="205.979" y="-159" font-family="sans" font-size="10.00">jf_histo</text>
</g>
<!-- 6&#45;&gt;3 -->
<g id="edge6" class="edge"><title>6&#45;&gt;3</title>
<path fill="none" stroke="grey" stroke-width="2" d="M204.248,-143.697C203.477,-135.983 202.55,-126.712 201.69,-118.112"/>
<polygon fill="grey" stroke="grey" stroke-width="2" points="205.167,-117.706 200.689,-108.104 198.201,-118.403 205.167,-117.706"/>
</g>
<!-- 7 -->
<g id="node8" class="node"><title>7</title>
<path fill="none" stroke="#56d8d8" stroke-width="2" d="M59.9356,-252C59.9356,-252 12.0215,-252 12.0215,-252 6.02147,-252 0.0214716,-246 0.0214716,-240 0.0214716,-240 0.0214716,-228 0.0214716,-228 0.0214716,-222 6.02147,-216 12.0215,-216 12.0215,-216 59.9356,-216 59.9356,-216 65.9356,-216 71.9356,-222 71.9356,-228 71.9356,-228 71.9356,-240 71.9356,-240 71.9356,-246 65.9356,-252 59.9356,-252"/>
<text text-anchor="middle" x="35.9785" y="-236" font-family="sans" font-size="10.00">jf_count</text>
<text text-anchor="middle" x="35.9785" y="-226" font-family="sans" font-size="10.00">strain: ko11fl</text>
</g>
<!-- 7&#45;&gt;4 -->
<g id="edge7" class="edge"><title>7&#45;&gt;4</title>
<path fill="none" stroke="grey" stroke-width="2" d="M36.9673,-215.697C37.4081,-207.983 37.9378,-198.712 38.4292,-190.112"/>
<polygon fill="grey" stroke="grey" stroke-width="2" points="41.9248,-190.288 39.0011,-180.104 34.9362,-189.888 41.9248,-190.288"/>
</g>
<!-- 8 -->
<g id="node9" class="node"><title>8</title>
<path fill="none" stroke="#56d8d8" stroke-width="2" d="M146.235,-252C146.235,-252 101.722,-252 101.722,-252 95.7222,-252 89.7222,-246 89.7222,-240 89.7222,-240 89.7222,-228 89.7222,-228 89.7222,-222 95.7222,-216 101.722,-216 101.722,-216 146.235,-216 146.235,-216 152.235,-216 158.235,-222 158.235,-228 158.235,-228 158.235,-240 158.235,-240 158.235,-246 152.235,-252 146.235,-252"/>
<text text-anchor="middle" x="123.979" y="-236" font-family="sans" font-size="10.00">jf_count</text>
<text text-anchor="middle" x="123.979" y="-226" font-family="sans" font-size="10.00">strain: ed1a</text>
</g>
<!-- 8&#45;&gt;5 -->
<g id="edge8" class="edge"><title>8&#45;&gt;5</title>
<path fill="none" stroke="grey" stroke-width="2" d="M123.979,-215.697C123.979,-207.983 123.979,-198.712 123.979,-190.112"/>
<polygon fill="grey" stroke="grey" stroke-width="2" points="127.479,-190.104 123.979,-180.104 120.479,-190.104 127.479,-190.104"/>
</g>
<!-- 9 -->
<g id="node10" class="node"><title>9</title>
<path fill="none" stroke="#56d8d8" stroke-width="2" d="M231.674,-252C231.674,-252 188.283,-252 188.283,-252 182.283,-252 176.283,-246 176.283,-240 176.283,-240 176.283,-228 176.283,-228 176.283,-222 182.283,-216 188.283,-216 188.283,-216 231.674,-216 231.674,-216 237.674,-216 243.674,-222 243.674,-228 243.674,-228 243.674,-240 243.674,-240 243.674,-246 237.674,-252 231.674,-252"/>
<text text-anchor="middle" x="209.979" y="-236" font-family="sans" font-size="10.00">jf_count</text>
<text text-anchor="middle" x="209.979" y="-226" font-family="sans" font-size="10.00">strain: se15</text>
</g>
<!-- 9&#45;&gt;6 -->
<g id="edge9" class="edge"><title>9&#45;&gt;6</title>
<path fill="none" stroke="grey" stroke-width="2" d="M208.99,-215.697C208.549,-207.983 208.019,-198.712 207.528,-190.112"/>
<polygon fill="grey" stroke="grey" stroke-width="2" points="211.021,-189.888 206.956,-180.104 204.032,-190.288 211.021,-189.888"/>
</g>
</g>
</svg>
